<?xml version="1.0" encoding="UTF-8"?>
<svg width="391px" height="116px" viewBox="0 0 391 116" version="1.1" xmlns="http://www.w3.org/2000/svg" xmlns:xlink="http://www.w3.org/1999/xlink">
    <title>编组 3</title>
    <g id="页面-1" stroke="none" stroke-width="1" fill="none" fill-rule="evenodd">
        <g id="MacBook-Air-13&quot;-M2" transform="translate(-559, -397)" fill="#333333">
            <g id="编组-3" transform="translate(559, 397)">
                <path d="M0,114 L0,111 L11,111 L11,3 L0,3 L0,0 L50,0 L50,114 L0,114 Z M65,54 L83,54 C99.5685425,54 113,67.4314575 113,84 C113,100.568542 99.5685425,114 83,114 L65,114 L65,114 L65,54 Z M82.5,35 C92.1649831,35 100,27.1649831 100,17.5 C100,7.83501688 92.1649831,0 82.5,0 C72.8350169,0 65,7.83501688 65,17.5 C65,27.1649831 72.8350169,35 82.5,35 Z" id="形状结合"></path>
                <circle id="形状结合备份-3" cx="373.5" cy="98.5" r="17.5"></circle>
                <path d="M150,114 L150,111 L161,111 L161,17.5 C161,7.83501688 168.835017,0 178.5,0 L211,0 L211,3 L200,3 L200,96.5 C200,106.164983 192.164983,114 182.5,114 L150,114 Z" id="形状结合备份"></path>
                <path d="M299,0 C310.045695,-3.55271368e-15 319,8.954305 319,20 L319,111 L330,111 L330,114 L269,114 L269,111 L280,111 L280,0 L299,0 Z M352,0 L352,36 L324,0 L352,0 Z M275,0 L247,36 L247,0 L275,0 Z" id="形状结合"></path>
            </g>
        </g>
    </g>
</svg>